<svg version="1.1" xmlns="http://www.w3.org/2000/svg" xmlns:xlink="http://www.w3.org/1999/xlink" width="732" height="1876"><defs/><g><g transform="translate(-286,-6) scale(1,1)"><rect fill="#C0C0C0" stroke="none" x="583" y="23" width="424" height="632" opacity="0.2"/></g><g transform="translate(-286,-6) scale(1,1)"><rect fill="#f3904e" stroke="none" x="576" y="16" width="424" height="632"/></g><g transform="translate(-286,-6) scale(1,1)"><path fill="none" stroke="#000000" d="M 576 16 L 1000 16 L 1000 648 L 576 648 L 576 16 Z Z" stroke-miterlimit="10"/></g><g transform="translate(-286,-6) scale(1,1)"><g><path fill="none" stroke="none"/><text fill="#000000" stroke="none" font-family="Arial" font-size="13px" font-style="normal" font-weight="bold" text-decoration="none" x="685.939208984375" y="34">cas d'utilisation d'élève Candidat</text></g></g><g transform="translate(-286,-6) scale(1,1)"><rect fill="#C0C0C0" stroke="none" x="583" y="703" width="424" height="520" opacity="0.2"/></g><g transform="translate(-286,-6) scale(1,1)"><rect fill="#f3904e" stroke="none" x="576" y="696" width="424" height="520"/></g><g transform="translate(-286,-6) scale(1,1)"><path fill="none" stroke="#000000" d="M 576 696 L 1000 696 L 1000 1216 L 576 1216 L 576 696 Z Z" stroke-miterlimit="10"/></g><g transform="translate(-286,-6) scale(1,1)"><g><path fill="none" stroke="none"/><text fill="#000000" stroke="none" font-family="Arial" font-size="13px" font-style="normal" font-weight="bold" text-decoration="none" x="630.340087890625" y="714">cas d'utilisation d'instructeur de conduite Moniteur</text></g></g><g transform="translate(-286,-6) scale(1,1)"><rect fill="#C0C0C0" stroke="none" x="575" y="1271" width="440" height="608" opacity="0.2"/></g><g transform="translate(-286,-6) scale(1,1)"><rect fill="#f3904e" stroke="none" x="568" y="1264" width="440" height="608"/></g><g transform="translate(-286,-6) scale(1,1)"><path fill="none" stroke="#000000" d="M 568 1264 L 1008 1264 L 1008 1872 L 568 1872 L 568 1264 Z Z" stroke-miterlimit="10"/></g><g transform="translate(-286,-6) scale(1,1)"><g><path fill="none" stroke="none"/><text fill="#000000" stroke="none" font-family="Arial" font-size="13px" font-style="normal" font-weight="bold" text-decoration="none" x="733.445068359375" y="1282">UseCaseSubject1</text></g></g><g transform="translate(-286,-6) scale(1,1)"><path fill="#C0C0C0" stroke="none" d="M 702 107.5 C 702 82.92332640000001 746.77152 63 802 63 C 857.22848 63 902 82.92332640000001 902 107.5 C 902 132.0766736 857.22848 152 802 152 C 746.77152 152 702 132.0766736 702 107.5 Z" opacity="0.2"/></g><g transform="translate(-286,-6) scale(1,1)"><path fill="#ffffff" stroke="none" d="M 695 100.5 C 695 75.92332640000001 739.77152 56 795 56 C 850.22848 56 895 75.92332640000001 895 100.5 C 895 125.07667359999999 850.22848 145 795 145 C 739.77152 145 695 125.07667359999999 695 100.5 Z"/></g><g transform="translate(-286,-6) scale(1,1)"><path fill="none" stroke="#000000" d="M 695 100.5 C 695 75.92332640000001 739.77152 56 795 56 C 850.22848 56 895 75.92332640000001 895 100.5 C 895 125.07667359999999 850.22848 145 795 145 C 739.77152 145 695 125.07667359999999 695 100.5 Z" stroke-miterlimit="10"/></g><g transform="translate(-286,-6) scale(1,1)"><g><path fill="none" stroke="none"/><text fill="#000000" stroke="none" font-family="Arial" font-size="13px" font-style="normal" font-weight="bold" text-decoration="none" x="732.034423828125" y="99.5">Peut s'inscrire à des</text><text fill="#000000" stroke="none" font-family="Arial" font-size="13px" font-style="normal" font-weight="bold" text-decoration="none" x="737.214111328125" y="112.5">cours de conduite.</text></g></g><g transform="translate(-286,-6) scale(1,1)"><path fill="#C0C0C0" stroke="none" d="M 702 201.5 C 702 176.9233264 746.77152 157 802 157 C 857.22848 157 902 176.9233264 902 201.5 C 902 226.0766736 857.22848 246 802 246 C 746.77152 246 702 226.0766736 702 201.5 Z" opacity="0.2"/></g><g transform="translate(-286,-6) scale(1,1)"><path fill="#ffffff" stroke="none" d="M 695 194.5 C 695 169.9233264 739.77152 150 795 150 C 850.22848 150 895 169.9233264 895 194.5 C 895 219.0766736 850.22848 239 795 239 C 739.77152 239 695 219.0766736 695 194.5 Z"/></g><g transform="translate(-286,-6) scale(1,1)"><path fill="none" stroke="#000000" d="M 695 194.5 C 695 169.9233264 739.77152 150 795 150 C 850.22848 150 895 169.9233264 895 194.5 C 895 219.0766736 850.22848 239 795 239 C 739.77152 239 695 219.0766736 695 194.5 Z" stroke-miterlimit="10"/></g><g transform="translate(-286,-6) scale(1,1)"><g><path fill="none" stroke="none"/><text fill="#000000" stroke="none" font-family="Arial" font-size="13px" font-style="normal" font-weight="bold" text-decoration="none" x="731.0791015625" y="187">Consulte son emploi</text><text fill="#000000" stroke="none" font-family="Arial" font-size="13px" font-style="normal" font-weight="bold" text-decoration="none" x="753.102294921875" y="200">du temps des</text><text fill="#000000" stroke="none" font-family="Arial" font-size="13px" font-style="normal" font-weight="bold" text-decoration="none" x="772.602294921875" y="213">leçons.</text></g></g><g transform="translate(-286,-6) scale(1,1)"><path fill="#C0C0C0" stroke="none" d="M 702 389.5 C 702 364.9233264 746.77152 345 802 345 C 857.22848 345 902 364.9233264 902 389.5 C 902 414.0766736 857.22848 434 802 434 C 746.77152 434 702 414.0766736 702 389.5 Z" opacity="0.2"/></g><g transform="translate(-286,-6) scale(1,1)"><path fill="#ffffff" stroke="none" d="M 695 382.5 C 695 357.9233264 739.77152 338 795 338 C 850.22848 338 895 357.9233264 895 382.5 C 895 407.0766736 850.22848 427 795 427 C 739.77152 427 695 407.0766736 695 382.5 Z"/></g><g transform="translate(-286,-6) scale(1,1)"><path fill="none" stroke="#000000" d="M 695 382.5 C 695 357.9233264 739.77152 338 795 338 C 850.22848 338 895 357.9233264 895 382.5 C 895 407.0766736 850.22848 427 795 427 C 739.77152 427 695 407.0766736 695 382.5 Z" stroke-miterlimit="10"/></g><g transform="translate(-286,-6) scale(1,1)"><g><path fill="none" stroke="none"/><text fill="#000000" stroke="none" font-family="Arial" font-size="13px" font-style="normal" font-weight="bold" text-decoration="none" x="733.94189453125" y="375">Prend des examens</text><text fill="#000000" stroke="none" font-family="Arial" font-size="13px" font-style="normal" font-weight="bold" text-decoration="none" x="758.158203125" y="388">pratiques et</text><text fill="#000000" stroke="none" font-family="Arial" font-size="13px" font-style="normal" font-weight="bold" text-decoration="none" x="759.96728515625" y="401">théoriques.</text></g></g><g transform="translate(-286,-6) scale(1,1)"><path fill="#C0C0C0" stroke="none" d="M 702 295.5 C 702 270.9233264 746.77152 251 802 251 C 857.22848 251 902 270.9233264 902 295.5 C 902 320.0766736 857.22848 340 802 340 C 746.77152 340 702 320.0766736 702 295.5 Z" opacity="0.2"/></g><g transform="translate(-286,-6) scale(1,1)"><path fill="#ffffff" stroke="none" d="M 695 288.5 C 695 263.9233264 739.77152 244 795 244 C 850.22848 244 895 263.9233264 895 288.5 C 895 313.0766736 850.22848 333 795 333 C 739.77152 333 695 313.0766736 695 288.5 Z"/></g><g transform="translate(-286,-6) scale(1,1)"><path fill="none" stroke="#000000" d="M 695 288.5 C 695 263.9233264 739.77152 244 795 244 C 850.22848 244 895 263.9233264 895 288.5 C 895 313.0766736 850.22848 333 795 333 C 739.77152 333 695 313.0766736 695 288.5 Z" stroke-miterlimit="10"/></g><g transform="translate(-286,-6) scale(1,1)"><g><path fill="none" stroke="none"/><text fill="#000000" stroke="none" font-family="Arial" font-size="13px" font-style="normal" font-weight="bold" text-decoration="none" x="731.056884765625" y="287.5">Suivie des leçons de</text><text fill="#000000" stroke="none" font-family="Arial" font-size="13px" font-style="normal" font-weight="bold" text-decoration="none" x="767.917724609375" y="300.5">conduite</text></g></g><g transform="translate(-286,-6) scale(1,1)"><path fill="#C0C0C0" stroke="none" d="M 702 483.5 C 702 458.9233264 746.77152 439 802 439 C 857.22848 439 902 458.9233264 902 483.5 C 902 508.0766736 857.22848 528 802 528 C 746.77152 528 702 508.0766736 702 483.5 Z" opacity="0.2"/></g><g transform="translate(-286,-6) scale(1,1)"><path fill="#ffffff" stroke="none" d="M 695 476.5 C 695 451.9233264 739.77152 432 795 432 C 850.22848 432 895 451.9233264 895 476.5 C 895 501.0766736 850.22848 521 795 521 C 739.77152 521 695 501.0766736 695 476.5 Z"/></g><g transform="translate(-286,-6) scale(1,1)"><path fill="none" stroke="#000000" d="M 695 476.5 C 695 451.9233264 739.77152 432 795 432 C 850.22848 432 895 451.9233264 895 476.5 C 895 501.0766736 850.22848 521 795 521 C 739.77152 521 695 501.0766736 695 476.5 Z" stroke-miterlimit="10"/></g><g transform="translate(-286,-6) scale(1,1)"><g><path fill="none" stroke="none"/><text fill="#000000" stroke="none" font-family="Arial" font-size="13px" font-style="normal" font-weight="bold" text-decoration="none" x="756.34912109375" y="462.5">Effectue des</text><text fill="#000000" stroke="none" font-family="Arial" font-size="13px" font-style="normal" font-weight="bold" text-decoration="none" x="735.760498046875" y="475.5">paiements pour les</text><text fill="#000000" stroke="none" font-family="Arial" font-size="13px" font-style="normal" font-weight="bold" text-decoration="none" x="758.872314453125" y="488.5">cours et les</text><text fill="#000000" stroke="none" font-family="Arial" font-size="13px" font-style="normal" font-weight="bold" text-decoration="none" x="765.369140625" y="500">examens.</text></g></g><g transform="translate(-286,-6) scale(1,1)"><path fill="#C0C0C0" stroke="none" d="M 702 577.5 C 702 552.9233264 746.77152 533 802 533 C 857.22848 533 902 552.9233264 902 577.5 C 902 602.0766736 857.22848 622 802 622 C 746.77152 622 702 602.0766736 702 577.5 Z" opacity="0.2"/></g><g transform="translate(-286,-6) scale(1,1)"><path fill="#ffffff" stroke="none" d="M 695 570.5 C 695 545.9233264 739.77152 526 795 526 C 850.22848 526 895 545.9233264 895 570.5 C 895 595.0766736 850.22848 615 795 615 C 739.77152 615 695 595.0766736 695 570.5 Z"/></g><g transform="translate(-286,-6) scale(1,1)"><path fill="none" stroke="#000000" d="M 695 570.5 C 695 545.9233264 739.77152 526 795 526 C 850.22848 526 895 545.9233264 895 570.5 C 895 595.0766736 850.22848 615 795 615 C 739.77152 615 695 595.0766736 695 570.5 Z" stroke-miterlimit="10"/></g><g transform="translate(-286,-6) scale(1,1)"><g><path fill="none" stroke="none"/><text fill="#000000" stroke="none" font-family="Arial" font-size="13px" font-style="normal" font-weight="bold" text-decoration="none" x="735.779541015625" y="563">Consulte son profil</text><text fill="#000000" stroke="none" font-family="Arial" font-size="13px" font-style="normal" font-weight="bold" text-decoration="none" x="755.254150390625" y="576">ses résultats</text><text fill="#000000" stroke="none" font-family="Arial" font-size="13px" font-style="normal" font-weight="bold" text-decoration="none" x="761.658935546875" y="589">d'examens</text></g></g><g transform="translate(-286,-6) scale(1,1)"><path fill="#ffffff" stroke="none" d="M 351.32072727272725 313.68 C 351.32072727272725 308.886167936 355.20656959767274 305 360 305 C 364.79343040232726 305 368.67927272727275 308.886167936 368.67927272727275 313.68 C 368.67927272727275 318.473832064 364.79343040232726 322.36 360 322.36 C 355.20656959767274 322.36 351.32072727272725 318.473832064 351.32072727272725 313.68 Z"/></g><g transform="translate(-286,-6) scale(1,1)"><path fill="none" stroke="#000000" d="M 351.32072727272725 313.68 C 351.32072727272725 308.886167936 355.20656959767274 305 360 305 C 364.79343040232726 305 368.67927272727275 308.886167936 368.67927272727275 313.68 C 368.67927272727275 318.473832064 364.79343040232726 322.36 360 322.36 C 355.20656959767274 322.36 351.32072727272725 318.473832064 351.32072727272725 313.68 Z" stroke-miterlimit="10"/></g><g transform="translate(-286,-6) scale(1,1)"><path fill="none" stroke="#000000" d="M 360 322.36 L 360 339.64" stroke-miterlimit="10"/></g><g transform="translate(-286,-6) scale(1,1)"><path fill="none" stroke="#000000" d="M 350.81018181818183 328.84 L 369.18981818181817 328.84" stroke-miterlimit="10"/></g><g transform="translate(-286,-6) scale(1,1)"><path fill="none" stroke="#000000" d="M 360 339.64 L 347.23636363636365 357" stroke-miterlimit="10"/></g><g transform="translate(-286,-6) scale(1,1)"><path fill="none" stroke="#000000" d="M 360 339.64 L 372.76363636363635 357" stroke-miterlimit="10"/></g><g transform="translate(-286,-6) scale(1,1)"><g><path fill="none" stroke="none"/><text fill="#000000" stroke="none" font-family="Arial" font-size="13px" font-style="normal" font-weight="bold" text-decoration="none" x="343.013671875" y="377.5">Élève</text></g></g><g transform="translate(-286,-6) scale(1,1)"><path fill="#ffffff" stroke="none" d="M 341.77116672585225 905.6800000000001 C 341.77116672585225 900.8861679360001 345.65700905079774 897 350.450439453125 897 C 355.24386985545226 897 359.12971218039775 900.8861679360001 359.12971218039775 905.6800000000001 C 359.12971218039775 910.473832064 355.24386985545226 914.36 350.450439453125 914.36 C 345.65700905079774 914.36 341.77116672585225 910.473832064 341.77116672585225 905.6800000000001 Z"/></g><g transform="translate(-286,-6) scale(1,1)"><path fill="none" stroke="#000000" d="M 341.77116672585225 905.6800000000001 C 341.77116672585225 900.8861679360001 345.65700905079774 897 350.450439453125 897 C 355.24386985545226 897 359.12971218039775 900.8861679360001 359.12971218039775 905.6800000000001 C 359.12971218039775 910.473832064 355.24386985545226 914.36 350.450439453125 914.36 C 345.65700905079774 914.36 341.77116672585225 910.473832064 341.77116672585225 905.6800000000001 Z" stroke-miterlimit="10"/></g><g transform="translate(-286,-6) scale(1,1)"><path fill="none" stroke="#000000" d="M 350.450439453125 914.36 L 350.450439453125 931.64" stroke-miterlimit="10"/></g><g transform="translate(-286,-6) scale(1,1)"><path fill="none" stroke="#000000" d="M 341.26062127130683 920.84 L 359.64025763494317 920.84" stroke-miterlimit="10"/></g><g transform="translate(-286,-6) scale(1,1)"><path fill="none" stroke="#000000" d="M 350.450439453125 931.64 L 337.68680308948865 949" stroke-miterlimit="10"/></g><g transform="translate(-286,-6) scale(1,1)"><path fill="none" stroke="#000000" d="M 350.450439453125 931.64 L 363.21407581676135 949" stroke-miterlimit="10"/></g><g transform="translate(-286,-6) scale(1,1)"><g><path fill="none" stroke="none"/><text fill="#000000" stroke="none" font-family="Arial" font-size="13px" font-style="normal" font-weight="bold" text-decoration="none" x="316.5" y="968">Instructeur</text></g></g><g transform="translate(-286,-6) scale(1,1)"><path fill="#ffffff" stroke="none" d="M 338.05070774147725 1529.6799999999998 C 338.05070774147725 1524.8861679359998 341.93655006642274 1521 346.72998046875 1521 C 351.52341087107726 1521 355.40925319602275 1524.8861679359998 355.40925319602275 1529.6799999999998 C 355.40925319602275 1534.473832064 351.52341087107726 1538.36 346.72998046875 1538.36 C 341.93655006642274 1538.36 338.05070774147725 1534.473832064 338.05070774147725 1529.6799999999998 Z"/></g><g transform="translate(-286,-6) scale(1,1)"><path fill="none" stroke="#000000" d="M 338.05070774147725 1529.6799999999998 C 338.05070774147725 1524.8861679359998 341.93655006642274 1521 346.72998046875 1521 C 351.52341087107726 1521 355.40925319602275 1524.8861679359998 355.40925319602275 1529.6799999999998 C 355.40925319602275 1534.473832064 351.52341087107726 1538.36 346.72998046875 1538.36 C 341.93655006642274 1538.36 338.05070774147725 1534.473832064 338.05070774147725 1529.6799999999998 Z" stroke-miterlimit="10"/></g><g transform="translate(-286,-6) scale(1,1)"><path fill="none" stroke="#000000" d="M 346.72998046875 1538.36 L 346.72998046875 1555.64" stroke-miterlimit="10"/></g><g transform="translate(-286,-6) scale(1,1)"><path fill="none" stroke="#000000" d="M 337.54016228693183 1544.84 L 355.91979865056817 1544.84" stroke-miterlimit="10"/></g><g transform="translate(-286,-6) scale(1,1)"><path fill="none" stroke="#000000" d="M 346.72998046875 1555.64 L 333.96634410511365 1573" stroke-miterlimit="10"/></g><g transform="translate(-286,-6) scale(1,1)"><path fill="none" stroke="#000000" d="M 346.72998046875 1555.64 L 359.49361683238635 1573" stroke-miterlimit="10"/></g><g transform="translate(-286,-6) scale(1,1)"><g><path fill="none" stroke="none"/><text fill="#000000" stroke="none" font-family="Arial" font-size="13px" font-style="normal" font-weight="bold" text-decoration="none" x="300.5" y="1592">Administrateur</text></g></g><g transform="translate(-286,-6) scale(1,1)"><path fill="none" stroke="#000000" d="M 385 329 L 713 146" stroke-miterlimit="10"/></g><g transform="translate(-286,-6) scale(1,1)"><path fill="none" stroke="#000000" d="M 385 334 L 694 229" stroke-miterlimit="10"/></g><g transform="translate(-286,-6) scale(1,1)"><path fill="none" stroke="#000000" d="M 385 340 L 694 301" stroke-miterlimit="10"/></g><g transform="translate(-286,-6) scale(1,1)"><path fill="none" stroke="#000000" d="M 385 345 L 694 373" stroke-miterlimit="10"/></g><g transform="translate(-286,-6) scale(1,1)"><path fill="none" stroke="#000000" d="M 385 351 L 694 445" stroke-miterlimit="10"/></g><g transform="translate(-286,-6) scale(1,1)"><path fill="none" stroke="#000000" d="M 385 356 L 709 525" stroke-miterlimit="10"/></g><g transform="translate(-286,-6) scale(1,1)"><path fill="#C0C0C0" stroke="none" d="M 679 771.5 C 679 746.9233264 723.77152 727 779 727 C 834.22848 727 879 746.9233264 879 771.5 C 879 796.0766736 834.22848 816 779 816 C 723.77152 816 679 796.0766736 679 771.5 Z" opacity="0.2"/></g><g transform="translate(-286,-6) scale(1,1)"><path fill="#ffffff" stroke="none" d="M 672 764.5 C 672 739.9233264 716.77152 720 772 720 C 827.22848 720 872 739.9233264 872 764.5 C 872 789.0766736 827.22848 809 772 809 C 716.77152 809 672 789.0766736 672 764.5 Z"/></g><g transform="translate(-286,-6) scale(1,1)"><path fill="none" stroke="#000000" d="M 672 764.5 C 672 739.9233264 716.77152 720 772 720 C 827.22848 720 872 739.9233264 872 764.5 C 872 789.0766736 827.22848 809 772 809 C 716.77152 809 672 789.0766736 672 764.5 Z" stroke-miterlimit="10"/></g><g transform="translate(-286,-6) scale(1,1)"><g><path fill="none" stroke="none"/><text fill="#000000" stroke="none" font-family="Arial" font-size="13px" font-style="normal" font-weight="bold" text-decoration="none" x="713.477783203125" y="763.5">Planifie des leçons</text><text fill="#000000" stroke="none" font-family="Arial" font-size="13px" font-style="normal" font-weight="bold" text-decoration="none" x="735.5263671875" y="776.5">de conduite</text></g></g><g transform="translate(-286,-6) scale(1,1)"><path fill="#C0C0C0" stroke="none" d="M 679 963.5 C 679 938.9233264 723.77152 919 779 919 C 834.22848 919 879 938.9233264 879 963.5 C 879 988.0766736 834.22848 1008 779 1008 C 723.77152 1008 679 988.0766736 679 963.5 Z" opacity="0.2"/></g><g transform="translate(-286,-6) scale(1,1)"><path fill="#ffffff" stroke="none" d="M 672 956.5 C 672 931.9233264 716.77152 912 772 912 C 827.22848 912 872 931.9233264 872 956.5 C 872 981.0766736 827.22848 1001 772 1001 C 716.77152 1001 672 981.0766736 672 956.5 Z"/></g><g transform="translate(-286,-6) scale(1,1)"><path fill="none" stroke="#000000" d="M 672 956.5 C 672 931.9233264 716.77152 912 772 912 C 827.22848 912 872 931.9233264 872 956.5 C 872 981.0766736 827.22848 1001 772 1001 C 716.77152 1001 672 981.0766736 672 956.5 Z" stroke-miterlimit="10"/></g><g transform="translate(-286,-6) scale(1,1)"><g><path fill="none" stroke="none"/><text fill="#000000" stroke="none" font-family="Arial" font-size="13px" font-style="normal" font-weight="bold" text-decoration="none" x="729.00732421875" y="949">Enregistre les</text><text fill="#000000" stroke="none" font-family="Arial" font-size="13px" font-style="normal" font-weight="bold" text-decoration="none" x="713.1064453125" y="962">progrès des élèves</text><text fill="#000000" stroke="none" font-family="Arial" font-size="13px" font-style="normal" font-weight="bold" text-decoration="none" x="713.484130859375" y="975">pendant les leçons</text></g></g><g transform="translate(-286,-6) scale(1,1)"><path fill="#C0C0C0" stroke="none" d="M 679 867.5 C 679 842.9233264 723.77152 823 779 823 C 834.22848 823 879 842.9233264 879 867.5 C 879 892.0766736 834.22848 912 779 912 C 723.77152 912 679 892.0766736 679 867.5 Z" opacity="0.2"/></g><g transform="translate(-286,-6) scale(1,1)"><path fill="#ffffff" stroke="none" d="M 672 860.5 C 672 835.9233264 716.77152 816 772 816 C 827.22848 816 872 835.9233264 872 860.5 C 872 885.0766736 827.22848 905 772 905 C 716.77152 905 672 885.0766736 672 860.5 Z"/></g><g transform="translate(-286,-6) scale(1,1)"><path fill="none" stroke="#000000" d="M 672 860.5 C 672 835.9233264 716.77152 816 772 816 C 827.22848 816 872 835.9233264 872 860.5 C 872 885.0766736 827.22848 905 772 905 C 716.77152 905 672 885.0766736 672 860.5 Z" stroke-miterlimit="10"/></g><g transform="translate(-286,-6) scale(1,1)"><g><path fill="none" stroke="none"/><text fill="#000000" stroke="none" font-family="Arial" font-size="13px" font-style="normal" font-weight="bold" text-decoration="none" x="708.0791015625" y="853">Consulte son emploi</text><text fill="#000000" stroke="none" font-family="Arial" font-size="13px" font-style="normal" font-weight="bold" text-decoration="none" x="707.70458984375" y="866">du temps des leçons</text><text fill="#000000" stroke="none" font-family="Arial" font-size="13px" font-style="normal" font-weight="bold" text-decoration="none" x="721.77734375" y="879">et des examens.</text></g></g><g transform="translate(-286,-6) scale(1,1)"><path fill="#C0C0C0" stroke="none" d="M 679 1059.5 C 679 1034.9233264 723.77152 1015 779 1015 C 834.22848 1015 879 1034.9233264 879 1059.5 C 879 1084.0766736 834.22848 1104 779 1104 C 723.77152 1104 679 1084.0766736 679 1059.5 Z" opacity="0.2"/></g><g transform="translate(-286,-6) scale(1,1)"><path fill="#ffffff" stroke="none" d="M 672 1052.5 C 672 1027.9233264 716.77152 1008 772 1008 C 827.22848 1008 872 1027.9233264 872 1052.5 C 872 1077.0766736 827.22848 1097 772 1097 C 716.77152 1097 672 1077.0766736 672 1052.5 Z"/></g><g transform="translate(-286,-6) scale(1,1)"><path fill="none" stroke="#000000" d="M 672 1052.5 C 672 1027.9233264 716.77152 1008 772 1008 C 827.22848 1008 872 1027.9233264 872 1052.5 C 872 1077.0766736 827.22848 1097 772 1097 C 716.77152 1097 672 1077.0766736 672 1052.5 Z" stroke-miterlimit="10"/></g><g transform="translate(-286,-6) scale(1,1)"><g><path fill="none" stroke="none"/><text fill="#000000" stroke="none" font-family="Arial" font-size="13px" font-style="normal" font-weight="bold" text-decoration="none" x="735.869140625" y="1045">Accède aux</text><text fill="#000000" stroke="none" font-family="Arial" font-size="13px" font-style="normal" font-weight="bold" text-decoration="none" x="709.87548828125" y="1058">informations sur les</text><text fill="#000000" stroke="none" font-family="Arial" font-size="13px" font-style="normal" font-weight="bold" text-decoration="none" x="752.119140625" y="1071">élèves</text></g></g><g transform="translate(-286,-6) scale(1,1)"><path fill="#C0C0C0" stroke="none" d="M 679 1155.5 C 679 1130.9233264 723.77152 1111 779 1111 C 834.22848 1111 879 1130.9233264 879 1155.5 C 879 1180.0766736 834.22848 1200 779 1200 C 723.77152 1200 679 1180.0766736 679 1155.5 Z" opacity="0.2"/></g><g transform="translate(-286,-6) scale(1,1)"><path fill="#ffffff" stroke="none" d="M 672 1148.5 C 672 1123.9233264 716.77152 1104 772 1104 C 827.22848 1104 872 1123.9233264 872 1148.5 C 872 1173.0766736 827.22848 1193 772 1193 C 716.77152 1193 672 1173.0766736 672 1148.5 Z"/></g><g transform="translate(-286,-6) scale(1,1)"><path fill="none" stroke="#000000" d="M 672 1148.5 C 672 1123.9233264 716.77152 1104 772 1104 C 827.22848 1104 872 1123.9233264 872 1148.5 C 872 1173.0766736 827.22848 1193 772 1193 C 716.77152 1193 672 1173.0766736 672 1148.5 Z" stroke-miterlimit="10"/></g><g transform="translate(-286,-6) scale(1,1)"><g><path fill="none" stroke="none"/><text fill="#000000" stroke="none" font-family="Arial" font-size="13px" font-style="normal" font-weight="bold" text-decoration="none" x="729.727783203125" y="1134.5">Accède a leur</text><text fill="#000000" stroke="none" font-family="Arial" font-size="13px" font-style="normal" font-weight="bold" text-decoration="none" x="731.19091796875" y="1147.5">historique de</text><text fill="#000000" stroke="none" font-family="Arial" font-size="13px" font-style="normal" font-weight="bold" text-decoration="none" x="727.575927734375" y="1160.5">conduite leurs</text><text fill="#000000" stroke="none" font-family="Arial" font-size="13px" font-style="normal" font-weight="bold" text-decoration="none" x="709.758056640625" y="1173.5">résultats d'examens</text></g></g><g transform="translate(-286,-6) scale(1,1)"><path fill="none" stroke="#000000" d="M 390 919 L 671 805" stroke-miterlimit="10"/></g><g transform="translate(-286,-6) scale(1,1)"><path fill="none" stroke="#000000" d="M 390 928 L 671 878" stroke-miterlimit="10"/></g><g transform="translate(-286,-6) scale(1,1)"><path fill="none" stroke="#000000" d="M 390 937 L 671 951" stroke-miterlimit="10"/></g><g transform="translate(-286,-6) scale(1,1)"><path fill="none" stroke="#000000" d="M 390 946 L 671 1024" stroke-miterlimit="10"/></g><g transform="translate(-286,-6) scale(1,1)"><path fill="none" stroke="#000000" d="M 390 955 L 683 1103" stroke-miterlimit="10"/></g><g transform="translate(-286,-6) scale(1,1)"><path fill="#C0C0C0" stroke="none" d="M 607 1451.5 C 607 1426.9233264 653.5623808 1407 711 1407 C 768.4376192 1407 815 1426.9233264 815 1451.5 C 815 1476.0766736 768.4376192 1496 711 1496 C 653.5623808 1496 607 1476.0766736 607 1451.5 Z" opacity="0.2"/></g><g transform="translate(-286,-6) scale(1,1)"><path fill="#ffffff" stroke="none" d="M 600 1444.5 C 600 1419.9233264 646.5623808 1400 704 1400 C 761.4376192 1400 808 1419.9233264 808 1444.5 C 808 1469.0766736 761.4376192 1489 704 1489 C 646.5623808 1489 600 1469.0766736 600 1444.5 Z"/></g><g transform="translate(-286,-6) scale(1,1)"><path fill="none" stroke="#000000" d="M 600 1444.5 C 600 1419.9233264 646.5623808 1400 704 1400 C 761.4376192 1400 808 1419.9233264 808 1444.5 C 808 1469.0766736 761.4376192 1489 704 1489 C 646.5623808 1489 600 1469.0766736 600 1444.5 Z" stroke-miterlimit="10"/></g><g transform="translate(-286,-6) scale(1,1)"><g><path fill="none" stroke="none"/><text fill="#000000" stroke="none" font-family="Arial" font-size="13px" font-style="normal" font-weight="bold" text-decoration="none" x="636.800537109375" y="1437">Gère les comptes des</text><text fill="#000000" stroke="none" font-family="Arial" font-size="13px" font-style="normal" font-weight="bold" text-decoration="none" x="663.52734375" y="1450">élèves et des</text><text fill="#000000" stroke="none" font-family="Arial" font-size="13px" font-style="normal" font-weight="bold" text-decoration="none" x="666.4345703125" y="1463">instructeurs</text></g></g><g transform="translate(-286,-6) scale(1,1)"><path fill="#C0C0C0" stroke="none" d="M 607 1355.5 C 607 1330.9233264 653.5623808 1311 711 1311 C 768.4376192 1311 815 1330.9233264 815 1355.5 C 815 1380.0766736 768.4376192 1400 711 1400 C 653.5623808 1400 607 1380.0766736 607 1355.5 Z" opacity="0.2"/></g><g transform="translate(-286,-6) scale(1,1)"><path fill="#ffffff" stroke="none" d="M 600 1348.5 C 600 1323.9233264 646.5623808 1304 704 1304 C 761.4376192 1304 808 1323.9233264 808 1348.5 C 808 1373.0766736 761.4376192 1393 704 1393 C 646.5623808 1393 600 1373.0766736 600 1348.5 Z"/></g><g transform="translate(-286,-6) scale(1,1)"><path fill="none" stroke="#000000" d="M 600 1348.5 C 600 1323.9233264 646.5623808 1304 704 1304 C 761.4376192 1304 808 1323.9233264 808 1348.5 C 808 1373.0766736 761.4376192 1393 704 1393 C 646.5623808 1393 600 1373.0766736 600 1348.5 Z" stroke-miterlimit="10"/></g><g transform="translate(-286,-6) scale(1,1)"><g><path fill="none" stroke="none"/><text fill="#000000" stroke="none" font-family="Arial" font-size="13px" font-style="normal" font-weight="bold" text-decoration="none" x="647.280517578125" y="1347.5">Gère des cours de</text><text fill="#000000" stroke="none" font-family="Arial" font-size="13px" font-style="normal" font-weight="bold" text-decoration="none" x="641.158203125" y="1360.5">code et de conduite.</text></g></g><g transform="translate(-286,-6) scale(1,1)"><path fill="#C0C0C0" stroke="none" d="M 607 1550.5 C 607 1525.9233264 653.5623808 1506 711 1506 C 768.4376192 1506 815 1525.9233264 815 1550.5 C 815 1575.0766736 768.4376192 1595 711 1595 C 653.5623808 1595 607 1575.0766736 607 1550.5 Z" opacity="0.2"/></g><g transform="translate(-286,-6) scale(1,1)"><path fill="#ffffff" stroke="none" d="M 600 1543.5 C 600 1518.9233264 646.5623808 1499 704 1499 C 761.4376192 1499 808 1518.9233264 808 1543.5 C 808 1568.0766736 761.4376192 1588 704 1588 C 646.5623808 1588 600 1568.0766736 600 1543.5 Z"/></g><g transform="translate(-286,-6) scale(1,1)"><path fill="none" stroke="#000000" d="M 600 1543.5 C 600 1518.9233264 646.5623808 1499 704 1499 C 761.4376192 1499 808 1518.9233264 808 1543.5 C 808 1568.0766736 761.4376192 1588 704 1588 C 646.5623808 1588 600 1568.0766736 600 1543.5 Z" stroke-miterlimit="10"/></g><g transform="translate(-286,-6) scale(1,1)"><g><path fill="none" stroke="none"/><text fill="#000000" stroke="none" font-family="Arial" font-size="13px" font-style="normal" font-weight="bold" text-decoration="none" x="640.4091796875" y="1536">Planifie les examens</text><text fill="#000000" stroke="none" font-family="Arial" font-size="13px" font-style="normal" font-weight="bold" text-decoration="none" x="667.158203125" y="1549">pratiques et</text><text fill="#000000" stroke="none" font-family="Arial" font-size="13px" font-style="normal" font-weight="bold" text-decoration="none" x="668.96728515625" y="1562">théoriques.</text></g></g><g transform="translate(-286,-6) scale(1,1)"><path fill="#C0C0C0" stroke="none" d="M 831 1760 C 831 1750.6111584 862.5639216 1743 901.5 1743 C 940.4360784 1743 972 1750.6111584 972 1760 C 972 1769.3888416 940.4360784 1777 901.5 1777 C 862.5639216 1777 831 1769.3888416 831 1760 Z" opacity="0.2"/></g><g transform="translate(-286,-6) scale(1,1)"><path fill="#ffffff" stroke="none" d="M 824 1753 C 824 1743.6111584 855.5639216 1736 894.5 1736 C 933.4360784 1736 965 1743.6111584 965 1753 C 965 1762.3888416 933.4360784 1770 894.5 1770 C 855.5639216 1770 824 1762.3888416 824 1753 Z"/></g><g transform="translate(-286,-6) scale(1,1)"><path fill="none" stroke="#000000" d="M 824 1753 C 824 1743.6111584 855.5639216 1736 894.5 1736 C 933.4360784 1736 965 1743.6111584 965 1753 C 965 1762.3888416 933.4360784 1770 894.5 1770 C 855.5639216 1770 824 1762.3888416 824 1753 Z" stroke-miterlimit="10"/></g><g transform="translate(-286,-6) scale(1,1)"><g><path fill="none" stroke="none"/><text fill="#000000" stroke="none" font-family="Arial" font-size="13px" font-style="normal" font-weight="bold" text-decoration="none" x="856.2236328125" y="1758.5">disponibilité</text></g></g><g transform="translate(-286,-6) scale(1,1)"><path fill="#C0C0C0" stroke="none" d="M 831 1816 C 831 1806.6111584 862.5639216 1799 901.5 1799 C 940.4360784 1799 972 1806.6111584 972 1816 C 972 1825.3888416 940.4360784 1833 901.5 1833 C 862.5639216 1833 831 1825.3888416 831 1816 Z" opacity="0.2"/></g><g transform="translate(-286,-6) scale(1,1)"><path fill="#ffffff" stroke="none" d="M 824 1809 C 824 1799.6111584 855.5639216 1792 894.5 1792 C 933.4360784 1792 965 1799.6111584 965 1809 C 965 1818.3888416 933.4360784 1826 894.5 1826 C 855.5639216 1826 824 1818.3888416 824 1809 Z"/></g><g transform="translate(-286,-6) scale(1,1)"><path fill="none" stroke="#000000" d="M 824 1809 C 824 1799.6111584 855.5639216 1792 894.5 1792 C 933.4360784 1792 965 1799.6111584 965 1809 C 965 1818.3888416 933.4360784 1826 894.5 1826 C 855.5639216 1826 824 1818.3888416 824 1809 Z" stroke-miterlimit="10"/></g><g transform="translate(-286,-6) scale(1,1)"><g><path fill="none" stroke="none"/><text fill="#000000" stroke="none" font-family="Arial" font-size="13px" font-style="normal" font-weight="bold" text-decoration="none" x="868.128662109375" y="1814.5">finances</text></g></g><g transform="translate(-286,-6) scale(1,1)"><path fill="#C0C0C0" stroke="none" d="M 607 1651.5 C 607 1626.9233264 653.5623808 1607 711 1607 C 768.4376192 1607 815 1626.9233264 815 1651.5 C 815 1676.0766736 768.4376192 1696 711 1696 C 653.5623808 1696 607 1676.0766736 607 1651.5 Z" opacity="0.2"/></g><g transform="translate(-286,-6) scale(1,1)"><path fill="#ffffff" stroke="none" d="M 600 1644.5 C 600 1619.9233264 646.5623808 1600 704 1600 C 761.4376192 1600 808 1619.9233264 808 1644.5 C 808 1669.0766736 761.4376192 1689 704 1689 C 646.5623808 1689 600 1669.0766736 600 1644.5 Z"/></g><g transform="translate(-286,-6) scale(1,1)"><path fill="none" stroke="#000000" d="M 600 1644.5 C 600 1619.9233264 646.5623808 1600 704 1600 C 761.4376192 1600 808 1619.9233264 808 1644.5 C 808 1669.0766736 761.4376192 1689 704 1689 C 646.5623808 1689 600 1669.0766736 600 1644.5 Z" stroke-miterlimit="10"/></g><g transform="translate(-286,-6) scale(1,1)"><g><path fill="none" stroke="none"/><text fill="#000000" stroke="none" font-family="Arial" font-size="13px" font-style="normal" font-weight="bold" text-decoration="none" x="636.800537109375" y="1643.5">Gère les paiements et</text><text fill="#000000" stroke="none" font-family="Arial" font-size="13px" font-style="normal" font-weight="bold" text-decoration="none" x="666.063232421875" y="1656.5">les factures.</text></g></g><g transform="translate(-286,-6) scale(1,1)"><path fill="#C0C0C0" stroke="none" d="M 607 1755.5 C 607 1730.9233264 653.5623808 1711 711 1711 C 768.4376192 1711 815 1730.9233264 815 1755.5 C 815 1780.0766736 768.4376192 1800 711 1800 C 653.5623808 1800 607 1780.0766736 607 1755.5 Z" opacity="0.2"/></g><g transform="translate(-286,-6) scale(1,1)"><path fill="#ffffff" stroke="none" d="M 600 1748.5 C 600 1723.9233264 646.5623808 1704 704 1704 C 761.4376192 1704 808 1723.9233264 808 1748.5 C 808 1773.0766736 761.4376192 1793 704 1793 C 646.5623808 1793 600 1773.0766736 600 1748.5 Z"/></g><g transform="translate(-286,-6) scale(1,1)"><path fill="none" stroke="#000000" d="M 600 1748.5 C 600 1723.9233264 646.5623808 1704 704 1704 C 761.4376192 1704 808 1723.9233264 808 1748.5 C 808 1773.0766736 761.4376192 1793 704 1793 C 646.5623808 1793 600 1773.0766736 600 1748.5 Z" stroke-miterlimit="10"/></g><g transform="translate(-286,-6) scale(1,1)"><g><path fill="none" stroke="none"/><text fill="#000000" stroke="none" font-family="Arial" font-size="13px" font-style="normal" font-weight="bold" text-decoration="none" x="640.421875" y="1741">Génère des rapports</text><text fill="#000000" stroke="none" font-family="Arial" font-size="13px" font-style="normal" font-weight="bold" text-decoration="none" x="638.247802734375" y="1754">sur les performances</text><text fill="#000000" stroke="none" font-family="Arial" font-size="13px" font-style="normal" font-weight="bold" text-decoration="none" x="671.11279296875" y="1767">des élèves</text></g></g><g transform="translate(-286,-6) scale(1,1)"><path fill="none" stroke="#000000" d="M 809 1751 L 823 1751" stroke-miterlimit="10"/></g><g transform="translate(-286,-6) scale(1,1)"><path fill="none" stroke="#000000" d="M 809 1782 L 838 1791" stroke-miterlimit="10"/></g><g transform="translate(-286,-6) scale(1,1)"><path fill="none" stroke="#000000" d="M 398 1528 L 626 1394" stroke-miterlimit="10"/></g><g transform="translate(-286,-6) scale(1,1)"><path fill="none" stroke="#000000" d="M 398 1542 L 599 1478" stroke-miterlimit="10"/></g><g transform="translate(-286,-6) scale(1,1)"><path fill="none" stroke="#000000" d="M 398 1557 L 599 1548" stroke-miterlimit="10"/></g><g transform="translate(-286,-6) scale(1,1)"><path fill="none" stroke="#000000" d="M 398 1571 L 599 1619" stroke-miterlimit="10"/></g><g transform="translate(-286,-6) scale(1,1)"><path fill="none" stroke="#000000" d="M 398 1587 L 619 1703" stroke-miterlimit="10"/></g></g></svg>